<svg width="512" height="512" viewBox="0 0 512 512" fill="none" xmlns="http://www.w3.org/2000/svg">
<path fill-rule="evenodd" clip-rule="evenodd" d="M75.1403 29.0467C62.4119 16.3184 41.7751 16.3184 29.0468 29.0467C16.3184 41.7751 16.3184 62.4119 29.0468 75.1402L436.86 482.953C449.588 495.682 470.225 495.682 482.953 482.953C495.682 470.225 495.682 449.588 482.953 436.86L75.1403 29.0467ZM63.9952 40.9485C57.631 34.5843 47.3126 34.5843 40.9485 40.9485C34.5843 47.3127 34.5843 57.631 40.9485 63.9952L448.762 471.808C455.126 478.172 465.444 478.172 471.808 471.808C478.172 465.444 478.172 455.126 471.808 448.762L63.9952 40.9485Z" fill="#7BC9FF"/>
<path d="M448.762 471.808L448.377 472.192L448.762 471.808ZM29.4309 29.4309C41.9471 16.9146 62.2399 16.9146 74.7561 29.4309L75.5244 28.6626C62.5839 15.7221 41.6032 15.7221 28.6626 28.6626L29.4309 29.4309ZM29.4309 74.7561C16.9146 62.2399 16.9146 41.9471 29.4309 29.4309L28.6626 28.6626C15.7221 41.6031 15.7221 62.5839 28.6626 75.5244L29.4309 74.7561ZM437.244 482.569L29.4309 74.7561L28.6626 75.5244L436.476 483.337L437.244 482.569ZM482.569 482.569C470.053 495.085 449.76 495.085 437.244 482.569L436.476 483.337C449.416 496.278 470.397 496.278 483.337 483.337L482.569 482.569ZM482.569 437.244C495.085 449.76 495.085 470.053 482.569 482.569L483.337 483.337C496.278 470.397 496.278 449.416 483.337 436.476L482.569 437.244ZM74.7561 29.4309L482.569 437.244L483.337 436.476L75.5244 28.6626L74.7561 29.4309ZM41.3326 41.3326C47.4846 35.1805 57.4591 35.1805 63.6111 41.3326L64.3793 40.5644C57.803 33.988 47.1407 33.988 40.5644 40.5644L41.3326 41.3326ZM41.3326 63.6111C35.1805 57.4591 35.1805 47.4846 41.3326 41.3326L40.5644 40.5644C33.988 47.1407 33.988 57.803 40.5644 64.3793L41.3326 63.6111ZM449.146 471.424L41.3326 63.6111L40.5644 64.3793L448.377 472.192L449.146 471.424ZM471.424 471.424C465.272 477.576 455.298 477.576 449.146 471.424L448.377 472.192C454.954 478.769 465.616 478.769 472.192 472.192L471.424 471.424ZM471.424 449.146C477.576 455.298 477.576 465.272 471.424 471.424L472.192 472.192C478.769 465.616 478.769 454.954 472.192 448.377L471.424 449.146ZM63.6111 41.3326L471.424 449.146L472.192 448.377L64.3793 40.5644L63.6111 41.3326Z" fill="black"/>
<path fill-rule="evenodd" clip-rule="evenodd" d="M338.378 255.954C338.378 220.433 317.907 189.695 288.119 174.891V110.598C351.871 128.193 398.688 186.606 398.688 255.954C398.688 289.654 387.632 320.772 368.948 345.879L325.526 302.457C333.686 288.867 338.378 272.958 338.378 255.954ZM157.987 134.917C162.531 131.536 167.272 128.404 172.189 125.543V126.286L216.371 171.138C211.138 173.085 206.133 175.503 201.409 178.339L157.987 134.917ZM129.198 162.989C109.112 188.603 97.1359 220.88 97.1359 255.954C97.1359 329.576 149.902 390.873 219.68 404.091L218.588 341.561C183.018 329.38 157.446 295.653 157.446 255.954C157.446 237.557 162.937 220.443 172.37 206.162L129.198 162.989ZM291.41 335.295L334.307 379.539C336.542 377.974 338.732 376.349 340.876 374.668L297.704 331.496C295.663 332.844 293.563 334.112 291.41 335.295Z" fill="#7BC9FF"/>
<mask id="path-4-outside-1_0_1" maskUnits="userSpaceOnUse" x="102.156" y="421.049" width="257" height="59" fill="black">
<rect fill="white" x="102.156" y="421.049" width="257" height="59"/>
<path d="M114.201 445.557L112.488 466.049H103.875L106.799 430.96H115.023L114.544 436.968H114.955C115.899 434.988 117.315 433.419 119.204 432.262C121.092 431.089 123.346 430.503 125.966 430.503C128.388 430.503 130.459 431.028 132.18 432.079C133.901 433.115 135.18 434.615 136.018 436.579C136.855 438.544 137.16 440.92 136.932 443.707L135.058 466.049H126.423L128.159 445.101C128.357 442.801 127.915 441.004 126.834 439.709C125.768 438.415 124.184 437.767 122.082 437.767C120.666 437.767 119.387 438.072 118.244 438.681C117.117 439.29 116.196 440.181 115.48 441.354C114.764 442.511 114.338 443.913 114.201 445.557ZM158.846 466.735C155.312 466.735 152.327 466.004 149.89 464.542C147.454 463.064 145.656 460.978 144.499 458.282C143.341 455.571 142.915 452.373 143.22 448.687C143.524 445.093 144.476 441.933 146.075 439.207C147.69 436.465 149.807 434.333 152.426 432.81C155.061 431.272 158.069 430.503 161.45 430.503C163.643 430.503 165.684 430.861 167.572 431.576C169.461 432.277 171.083 433.351 172.438 434.798C173.809 436.244 174.822 438.087 175.477 440.326C176.147 442.55 176.352 445.192 176.093 448.253L175.888 450.835H146.921L147.377 445.146H168.121C168.242 443.593 168.029 442.222 167.481 441.034C166.933 439.831 166.103 438.887 164.991 438.201C163.894 437.501 162.577 437.151 161.039 437.151C159.424 437.151 157.962 437.547 156.652 438.338C155.343 439.115 154.277 440.143 153.454 441.423C152.647 442.687 152.182 444.057 152.061 445.535L151.558 450.812C151.391 452.853 151.604 454.566 152.198 455.952C152.807 457.323 153.728 458.358 154.962 459.059C156.211 459.744 157.734 460.087 159.531 460.087C160.704 460.087 161.785 459.927 162.775 459.607C163.765 459.272 164.633 458.777 165.379 458.122C166.125 457.467 166.719 456.652 167.161 455.678L175.111 456.477C174.456 458.549 173.375 460.353 171.867 461.892C170.375 463.43 168.524 464.625 166.316 465.478C164.107 466.316 161.617 466.735 158.846 466.735ZM180.365 479.208L184.409 430.96H192.884L192.405 436.785H192.884C193.372 435.917 194.05 434.995 194.918 434.021C195.786 433.046 196.913 432.216 198.299 431.531C199.685 430.845 201.398 430.503 203.439 430.503C206.104 430.503 208.465 431.188 210.521 432.559C212.592 433.929 214.161 435.955 215.227 438.635C216.293 441.316 216.666 444.621 216.346 448.55C216.026 452.419 215.12 455.701 213.628 458.396C212.135 461.092 210.247 463.148 207.962 464.564C205.678 465.966 203.165 466.666 200.423 466.666C198.443 466.666 196.814 466.339 195.534 465.684C194.27 465.014 193.273 464.206 192.542 463.262C191.826 462.303 191.285 461.381 190.92 460.498H190.554L189.001 479.208H180.365ZM191.4 448.504C191.217 450.728 191.369 452.677 191.856 454.353C192.344 456.028 193.151 457.33 194.278 458.259C195.405 459.188 196.821 459.653 198.527 459.653C200.294 459.653 201.809 459.173 203.073 458.214C204.353 457.254 205.373 455.937 206.134 454.261C206.896 452.586 207.368 450.667 207.551 448.504C207.718 446.372 207.566 444.476 207.094 442.816C206.622 441.156 205.822 439.861 204.695 438.932C203.583 437.988 202.137 437.516 200.355 437.516C198.619 437.516 197.111 437.973 195.831 438.887C194.567 439.785 193.555 441.057 192.793 442.702C192.047 444.347 191.582 446.281 191.4 448.504ZM242.492 430.96L241.944 437.585H221.543L222.092 430.96H242.492ZM227.711 422.553H236.347L233.605 455.449C233.514 456.5 233.605 457.307 233.88 457.871C234.169 458.434 234.58 458.823 235.113 459.036C235.646 459.249 236.255 459.356 236.941 459.356C237.428 459.356 237.893 459.318 238.334 459.242C238.776 459.15 239.119 459.082 239.362 459.036L240.276 465.684C239.789 465.836 239.119 466.004 238.266 466.186C237.428 466.384 236.408 466.499 235.205 466.529C233.057 466.59 231.169 466.27 229.539 465.57C227.925 464.869 226.691 463.788 225.838 462.326C225.001 460.848 224.681 458.998 224.879 456.774L227.711 422.553ZM269.957 451.246L271.648 430.96H280.283L277.359 466.049H269.021L269.546 459.79H269.181C268.236 461.77 266.797 463.384 264.863 464.633C262.944 465.882 260.667 466.506 258.032 466.506C255.717 466.506 253.722 465.988 252.047 464.953C250.372 463.917 249.115 462.417 248.278 460.452C247.455 458.472 247.158 456.089 247.387 453.302L249.26 430.96H257.895L256.136 451.908C255.969 454.101 256.426 455.838 257.507 457.117C258.588 458.396 260.104 459.036 262.053 459.036C263.256 459.036 264.437 458.747 265.594 458.168C266.751 457.589 267.734 456.729 268.541 455.586C269.348 454.429 269.82 452.982 269.957 451.246ZM296.012 445.557L294.299 466.049H285.686L288.61 430.96H296.834L296.355 436.968H296.766C297.71 434.988 299.126 433.419 301.015 432.262C302.904 431.089 305.158 430.503 307.777 430.503C310.199 430.503 312.27 431.028 313.991 432.079C315.712 433.115 316.991 434.615 317.829 436.579C318.666 438.544 318.971 440.92 318.743 443.707L316.869 466.049H308.234L309.97 445.101C310.168 442.801 309.727 441.004 308.645 439.709C307.579 438.415 305.995 437.767 303.893 437.767C302.477 437.767 301.198 438.072 300.056 438.681C298.929 439.29 298.007 440.181 297.291 441.354C296.575 442.511 296.149 443.913 296.012 445.557ZM340.657 466.735C337.123 466.735 334.138 466.004 331.701 464.542C329.265 463.064 327.467 460.978 326.31 458.282C325.153 455.571 324.726 452.373 325.031 448.687C325.335 445.093 326.287 441.933 327.886 439.207C329.501 436.465 331.618 434.333 334.237 432.81C336.872 431.272 339.88 430.503 343.261 430.503C345.454 430.503 347.495 430.861 349.383 431.576C351.272 432.277 352.894 433.351 354.249 434.798C355.62 436.244 356.633 438.087 357.288 440.326C357.958 442.55 358.163 445.192 357.904 448.253L357.699 450.835H328.732L329.188 445.146H349.932C350.053 443.593 349.84 442.222 349.292 441.034C348.744 439.831 347.914 438.887 346.802 438.201C345.705 437.501 344.388 437.151 342.85 437.151C341.235 437.151 339.773 437.547 338.463 438.338C337.154 439.115 336.088 440.143 335.265 441.423C334.458 442.687 333.994 444.057 333.872 445.535L333.369 450.812C333.202 452.853 333.415 454.566 334.009 455.952C334.618 457.323 335.539 458.358 336.773 459.059C338.022 459.744 339.545 460.087 341.342 460.087C342.515 460.087 343.596 459.927 344.586 459.607C345.576 459.272 346.444 458.777 347.19 458.122C347.937 457.467 348.53 456.652 348.972 455.678L356.922 456.477C356.267 458.549 355.186 460.353 353.678 461.892C352.186 463.43 350.335 464.625 348.127 465.478C345.919 466.316 343.428 466.735 340.657 466.735Z"/>
</mask>
<path d="M114.201 445.557L112.488 466.049H103.875L106.799 430.96H115.023L114.544 436.968H114.955C115.899 434.988 117.315 433.419 119.204 432.262C121.092 431.089 123.346 430.503 125.966 430.503C128.388 430.503 130.459 431.028 132.18 432.079C133.901 433.115 135.18 434.615 136.018 436.579C136.855 438.544 137.16 440.92 136.932 443.707L135.058 466.049H126.423L128.159 445.101C128.357 442.801 127.915 441.004 126.834 439.709C125.768 438.415 124.184 437.767 122.082 437.767C120.666 437.767 119.387 438.072 118.244 438.681C117.117 439.29 116.196 440.181 115.48 441.354C114.764 442.511 114.338 443.913 114.201 445.557ZM158.846 466.735C155.312 466.735 152.327 466.004 149.89 464.542C147.454 463.064 145.656 460.978 144.499 458.282C143.341 455.571 142.915 452.373 143.22 448.687C143.524 445.093 144.476 441.933 146.075 439.207C147.69 436.465 149.807 434.333 152.426 432.81C155.061 431.272 158.069 430.503 161.45 430.503C163.643 430.503 165.684 430.861 167.572 431.576C169.461 432.277 171.083 433.351 172.438 434.798C173.809 436.244 174.822 438.087 175.477 440.326C176.147 442.55 176.352 445.192 176.093 448.253L175.888 450.835H146.921L147.377 445.146H168.121C168.242 443.593 168.029 442.222 167.481 441.034C166.933 439.831 166.103 438.887 164.991 438.201C163.894 437.501 162.577 437.151 161.039 437.151C159.424 437.151 157.962 437.547 156.652 438.338C155.343 439.115 154.277 440.143 153.454 441.423C152.647 442.687 152.182 444.057 152.061 445.535L151.558 450.812C151.391 452.853 151.604 454.566 152.198 455.952C152.807 457.323 153.728 458.358 154.962 459.059C156.211 459.744 157.734 460.087 159.531 460.087C160.704 460.087 161.785 459.927 162.775 459.607C163.765 459.272 164.633 458.777 165.379 458.122C166.125 457.467 166.719 456.652 167.161 455.678L175.111 456.477C174.456 458.549 173.375 460.353 171.867 461.892C170.375 463.43 168.524 464.625 166.316 465.478C164.107 466.316 161.617 466.735 158.846 466.735ZM180.365 479.208L184.409 430.96H192.884L192.405 436.785H192.884C193.372 435.917 194.05 434.995 194.918 434.021C195.786 433.046 196.913 432.216 198.299 431.531C199.685 430.845 201.398 430.503 203.439 430.503C206.104 430.503 208.465 431.188 210.521 432.559C212.592 433.929 214.161 435.955 215.227 438.635C216.293 441.316 216.666 444.621 216.346 448.55C216.026 452.419 215.12 455.701 213.628 458.396C212.135 461.092 210.247 463.148 207.962 464.564C205.678 465.966 203.165 466.666 200.423 466.666C198.443 466.666 196.814 466.339 195.534 465.684C194.27 465.014 193.273 464.206 192.542 463.262C191.826 462.303 191.285 461.381 190.92 460.498H190.554L189.001 479.208H180.365ZM191.4 448.504C191.217 450.728 191.369 452.677 191.856 454.353C192.344 456.028 193.151 457.33 194.278 458.259C195.405 459.188 196.821 459.653 198.527 459.653C200.294 459.653 201.809 459.173 203.073 458.214C204.353 457.254 205.373 455.937 206.134 454.261C206.896 452.586 207.368 450.667 207.551 448.504C207.718 446.372 207.566 444.476 207.094 442.816C206.622 441.156 205.822 439.861 204.695 438.932C203.583 437.988 202.137 437.516 200.355 437.516C198.619 437.516 197.111 437.973 195.831 438.887C194.567 439.785 193.555 441.057 192.793 442.702C192.047 444.347 191.582 446.281 191.4 448.504ZM242.492 430.96L241.944 437.585H221.543L222.092 430.96H242.492ZM227.711 422.553H236.347L233.605 455.449C233.514 456.5 233.605 457.307 233.88 457.871C234.169 458.434 234.58 458.823 235.113 459.036C235.646 459.249 236.255 459.356 236.941 459.356C237.428 459.356 237.893 459.318 238.334 459.242C238.776 459.15 239.119 459.082 239.362 459.036L240.276 465.684C239.789 465.836 239.119 466.004 238.266 466.186C237.428 466.384 236.408 466.499 235.205 466.529C233.057 466.59 231.169 466.27 229.539 465.57C227.925 464.869 226.691 463.788 225.838 462.326C225.001 460.848 224.681 458.998 224.879 456.774L227.711 422.553ZM269.957 451.246L271.648 430.96H280.283L277.359 466.049H269.021L269.546 459.79H269.181C268.236 461.77 266.797 463.384 264.863 464.633C262.944 465.882 260.667 466.506 258.032 466.506C255.717 466.506 253.722 465.988 252.047 464.953C250.372 463.917 249.115 462.417 248.278 460.452C247.455 458.472 247.158 456.089 247.387 453.302L249.26 430.96H257.895L256.136 451.908C255.969 454.101 256.426 455.838 257.507 457.117C258.588 458.396 260.104 459.036 262.053 459.036C263.256 459.036 264.437 458.747 265.594 458.168C266.751 457.589 267.734 456.729 268.541 455.586C269.348 454.429 269.82 452.982 269.957 451.246ZM296.012 445.557L294.299 466.049H285.686L288.61 430.96H296.834L296.355 436.968H296.766C297.71 434.988 299.126 433.419 301.015 432.262C302.904 431.089 305.158 430.503 307.777 430.503C310.199 430.503 312.27 431.028 313.991 432.079C315.712 433.115 316.991 434.615 317.829 436.579C318.666 438.544 318.971 440.92 318.743 443.707L316.869 466.049H308.234L309.97 445.101C310.168 442.801 309.727 441.004 308.645 439.709C307.579 438.415 305.995 437.767 303.893 437.767C302.477 437.767 301.198 438.072 300.056 438.681C298.929 439.29 298.007 440.181 297.291 441.354C296.575 442.511 296.149 443.913 296.012 445.557ZM340.657 466.735C337.123 466.735 334.138 466.004 331.701 464.542C329.265 463.064 327.467 460.978 326.31 458.282C325.153 455.571 324.726 452.373 325.031 448.687C325.335 445.093 326.287 441.933 327.886 439.207C329.501 436.465 331.618 434.333 334.237 432.81C336.872 431.272 339.88 430.503 343.261 430.503C345.454 430.503 347.495 430.861 349.383 431.576C351.272 432.277 352.894 433.351 354.249 434.798C355.62 436.244 356.633 438.087 357.288 440.326C357.958 442.55 358.163 445.192 357.904 448.253L357.699 450.835H328.732L329.188 445.146H349.932C350.053 443.593 349.84 442.222 349.292 441.034C348.744 439.831 347.914 438.887 346.802 438.201C345.705 437.501 344.388 437.151 342.85 437.151C341.235 437.151 339.773 437.547 338.463 438.338C337.154 439.115 336.088 440.143 335.265 441.423C334.458 442.687 333.994 444.057 333.872 445.535L333.369 450.812C333.202 452.853 333.415 454.566 334.009 455.952C334.618 457.323 335.539 458.358 336.773 459.059C338.022 459.744 339.545 460.087 341.342 460.087C342.515 460.087 343.596 459.927 344.586 459.607C345.576 459.272 346.444 458.777 347.19 458.122C347.937 457.467 348.53 456.652 348.972 455.678L356.922 456.477C356.267 458.549 355.186 460.353 353.678 461.892C352.186 463.43 350.335 464.625 348.127 465.478C345.919 466.316 343.428 466.735 340.657 466.735Z" fill="#8576FF"/>
<path d="M114.201 445.557L114.869 445.613L114.869 445.613L114.201 445.557ZM112.488 466.049V466.719H113.104L113.155 466.105L112.488 466.049ZM103.875 466.049L103.207 465.994L103.147 466.719H103.875V466.049ZM106.799 430.96V430.289H106.183L106.131 430.904L106.799 430.96ZM115.023 430.96L115.691 431.013L115.749 430.289H115.023V430.96ZM114.544 436.968L113.876 436.914L113.818 437.638H114.544V436.968ZM114.955 436.968V437.638H115.378L115.56 437.256L114.955 436.968ZM119.204 432.262L119.554 432.833L119.557 432.831L119.204 432.262ZM132.18 432.079L131.831 432.651L131.834 432.653L132.18 432.079ZM136.932 443.707L137.599 443.763L137.599 443.762L136.932 443.707ZM135.058 466.049V466.719H135.675L135.726 466.105L135.058 466.049ZM126.423 466.049L125.755 465.994L125.695 466.719H126.423V466.049ZM128.159 445.101L127.492 445.043L127.491 445.045L128.159 445.101ZM126.834 439.709L126.317 440.135L126.32 440.139L126.834 439.709ZM118.244 438.681L117.929 438.09L117.926 438.092L118.244 438.681ZM115.48 441.354L116.05 441.706L116.052 441.703L115.48 441.354ZM113.533 445.502L111.82 465.993L113.155 466.105L114.869 445.613L113.533 445.502ZM112.488 465.379H103.875V466.719H112.488V465.379ZM104.543 466.105L107.467 431.015L106.131 430.904L103.207 465.994L104.543 466.105ZM106.799 431.63H115.023V430.289H106.799V431.63ZM114.355 430.906L113.876 436.914L115.212 437.021L115.691 431.013L114.355 430.906ZM114.544 437.638H114.955V436.298H114.544V437.638ZM115.56 437.256C116.448 435.394 117.775 433.924 119.554 432.833L118.854 431.69C116.856 432.915 115.351 434.581 114.35 436.679L115.56 437.256ZM119.557 432.831C121.322 431.735 123.449 431.173 125.966 431.173V429.833C123.244 429.833 120.863 430.443 118.85 431.692L119.557 432.831ZM125.966 431.173C128.289 431.173 130.234 431.676 131.831 432.651L132.529 431.507C130.684 430.38 128.486 429.833 125.966 429.833V431.173ZM131.834 432.653C133.427 433.611 134.615 434.999 135.401 436.842L136.634 436.317C135.745 434.231 134.375 432.618 132.525 431.505L131.834 432.653ZM135.401 436.842C136.185 438.681 136.486 440.941 136.264 443.652L137.599 443.762C137.834 440.899 137.526 438.408 136.634 436.317L135.401 436.842ZM136.264 443.651L134.391 465.993L135.726 466.105L137.599 443.763L136.264 443.651ZM135.058 465.379H126.423V466.719H135.058V465.379ZM127.091 466.105L128.827 445.156L127.491 445.045L125.755 465.994L127.091 466.105ZM128.827 445.158C129.034 442.748 128.58 440.754 127.348 439.28L126.32 440.139C127.251 441.254 127.68 442.853 127.492 445.043L128.827 445.158ZM127.351 439.283C126.127 437.796 124.329 437.097 122.082 437.097V438.437C124.039 438.437 125.409 439.033 126.317 440.135L127.351 439.283ZM122.082 437.097C120.567 437.097 119.177 437.424 117.929 438.09L118.56 439.272C119.596 438.72 120.765 438.437 122.082 438.437V437.097ZM117.926 438.092C116.687 438.761 115.681 439.739 114.908 441.005L116.052 441.703C116.711 440.624 117.548 439.819 118.563 439.271L117.926 438.092ZM114.91 441.002C114.128 442.266 113.677 443.774 113.533 445.502L114.869 445.613C114.999 444.051 115.401 442.757 116.05 441.706L114.91 441.002ZM149.89 464.542L149.543 465.115L149.546 465.116L149.89 464.542ZM144.499 458.282L143.883 458.545L143.883 458.546L144.499 458.282ZM143.22 448.687L142.552 448.631L142.552 448.632L143.22 448.687ZM146.075 439.207L145.498 438.867L145.497 438.868L146.075 439.207ZM152.426 432.81L152.763 433.389L152.764 433.389L152.426 432.81ZM167.572 431.576L167.335 432.203L167.339 432.205L167.572 431.576ZM172.438 434.798L171.949 435.256L171.952 435.258L172.438 434.798ZM175.477 440.326L174.833 440.514L174.835 440.519L175.477 440.326ZM176.093 448.253L175.426 448.197L175.425 448.2L176.093 448.253ZM175.888 450.835V451.505H176.507L176.556 450.888L175.888 450.835ZM146.921 450.835L146.253 450.781L146.194 451.505H146.921V450.835ZM147.377 445.146V444.476H146.759L146.709 445.093L147.377 445.146ZM168.121 445.146V445.816H168.74L168.789 445.199L168.121 445.146ZM167.481 441.034L166.871 441.312L166.872 441.315L167.481 441.034ZM164.991 438.201L164.63 438.766L164.639 438.772L164.991 438.201ZM156.652 438.338L156.994 438.915L156.999 438.912L156.652 438.338ZM153.454 441.423L152.89 441.06L152.889 441.062L153.454 441.423ZM152.061 445.535L152.728 445.598L152.728 445.59L152.061 445.535ZM151.558 450.812L150.891 450.748L150.89 450.757L151.558 450.812ZM152.198 455.952L151.582 456.216L151.585 456.224L152.198 455.952ZM154.962 459.059L154.631 459.642L154.64 459.646L154.962 459.059ZM162.775 459.607L162.981 460.245L162.99 460.242L162.775 459.607ZM165.379 458.122L165.821 458.626L165.379 458.122ZM167.161 455.678L167.228 455.011L166.749 454.963L166.551 455.401L167.161 455.678ZM175.111 456.477L175.75 456.679L175.999 455.893L175.178 455.811L175.111 456.477ZM171.867 461.892L171.389 461.422L171.386 461.425L171.867 461.892ZM166.316 465.478L166.553 466.105L166.557 466.103L166.316 465.478ZM158.846 466.065C155.404 466.065 152.545 465.353 150.235 463.967L149.546 465.116C152.109 466.654 155.22 467.405 158.846 467.405V466.065ZM150.238 463.969C147.924 462.566 146.219 460.589 145.115 458.018L143.883 458.546C145.094 461.366 146.983 463.563 149.543 465.115L150.238 463.969ZM145.115 458.019C144.01 455.431 143.59 452.346 143.887 448.742L142.552 448.632C142.24 452.399 142.673 455.712 143.883 458.545L145.115 458.019ZM143.887 448.744C144.185 445.235 145.111 442.174 146.653 439.546L145.497 438.868C143.841 441.691 142.864 444.951 142.552 448.631L143.887 448.744ZM146.653 439.547C148.212 436.899 150.248 434.852 152.763 433.389L152.089 432.231C149.365 433.814 147.168 436.031 145.498 438.867L146.653 439.547ZM152.764 433.389C155.285 431.917 158.174 431.173 161.45 431.173V429.833C157.963 429.833 154.836 430.627 152.088 432.231L152.764 433.389ZM161.45 431.173C163.569 431.173 165.528 431.518 167.335 432.203L167.81 430.95C165.839 430.203 163.717 429.833 161.45 429.833V431.173ZM167.339 432.205C169.132 432.87 170.666 433.886 171.949 435.256L172.927 434.339C171.5 432.815 169.79 431.684 167.805 430.948L167.339 432.205ZM171.952 435.258C173.238 436.616 174.203 438.36 174.833 440.514L176.12 440.138C175.44 437.814 174.38 435.873 172.925 434.337L171.952 435.258ZM174.835 440.519C175.474 442.641 175.68 445.194 175.426 448.197L176.761 448.31C177.025 445.19 176.819 442.459 176.118 440.133L174.835 440.519ZM175.425 448.2L175.22 450.781L176.556 450.888L176.761 448.306L175.425 448.2ZM175.888 450.165H146.921V451.505H175.888V450.165ZM147.588 450.888L148.045 445.2L146.709 445.093L146.253 450.781L147.588 450.888ZM147.377 445.816H168.121V444.476H147.377V445.816ZM168.789 445.199C168.918 443.553 168.694 442.064 168.089 440.753L166.872 441.315C167.364 442.381 167.567 443.633 167.453 445.094L168.789 445.199ZM168.091 440.756C167.488 439.434 166.569 438.387 165.342 437.631L164.639 438.772C165.636 439.387 166.377 440.228 166.871 441.312L168.091 440.756ZM165.352 437.637C164.129 436.856 162.681 436.48 161.039 436.48V437.821C162.473 437.821 163.66 438.146 164.63 438.766L165.352 437.637ZM161.039 436.48C159.309 436.48 157.726 436.906 156.306 437.765L156.999 438.912C158.199 438.187 159.54 437.821 161.039 437.821V436.48ZM156.311 437.762C154.911 438.592 153.769 439.693 152.89 441.06L154.018 441.785C154.784 440.593 155.774 439.639 156.994 438.915L156.311 437.762ZM152.889 441.062C152.024 442.417 151.524 443.892 151.393 445.48L152.728 445.59C152.841 444.222 153.27 442.956 154.019 441.783L152.889 441.062ZM151.394 445.471L150.891 450.748L152.225 450.875L152.728 445.598L151.394 445.471ZM150.89 450.757C150.717 452.869 150.932 454.7 151.582 456.216L152.814 455.688C152.275 454.432 152.064 452.836 152.226 450.867L150.89 450.757ZM151.585 456.224C152.249 457.718 153.265 458.866 154.631 459.641L155.293 458.476C154.191 457.85 153.365 456.927 152.81 455.68L151.585 456.224ZM154.64 459.646C156.01 460.398 157.65 460.757 159.531 460.757V459.417C157.818 459.417 156.412 459.09 155.284 458.471L154.64 459.646ZM159.531 460.757C160.765 460.757 161.917 460.589 162.981 460.245L162.569 458.969C161.653 459.265 160.642 459.417 159.531 459.417V460.757ZM162.99 460.242C164.059 459.88 165.005 459.342 165.821 458.626L164.937 457.618C164.261 458.212 163.471 458.664 162.56 458.972L162.99 460.242ZM165.821 458.626C166.645 457.903 167.294 457.009 167.771 455.954L166.551 455.401C166.145 456.296 165.606 457.031 164.937 457.618L165.821 458.626ZM167.094 456.344L175.044 457.144L175.178 455.811L167.228 455.011L167.094 456.344ZM174.472 456.275C173.849 458.247 172.822 459.96 171.389 461.422L172.346 462.361C173.928 460.747 175.064 458.85 175.75 456.679L174.472 456.275ZM171.386 461.425C169.968 462.887 168.202 464.031 166.074 464.853L166.557 466.103C168.846 465.219 170.781 463.973 172.348 462.358L171.386 461.425ZM166.078 464.852C163.958 465.656 161.55 466.065 158.846 466.065V467.405C161.685 467.405 164.257 466.976 166.553 466.105L166.078 464.852ZM180.365 479.208L179.698 479.152L179.637 479.878H180.365V479.208ZM184.409 430.96V430.289H183.793L183.741 430.904L184.409 430.96ZM192.884 430.96L193.552 431.015L193.612 430.289H192.884V430.96ZM192.405 436.785L191.737 436.73L191.677 437.455H192.405V436.785ZM192.884 436.785V437.455H193.277L193.469 437.113L192.884 436.785ZM194.918 434.021L195.418 434.466L195.418 434.466L194.918 434.021ZM198.299 431.531L198.002 430.93L198.002 430.93L198.299 431.531ZM210.521 432.559L210.149 433.116L210.151 433.118L210.521 432.559ZM216.346 448.55L217.014 448.605L217.014 448.604L216.346 448.55ZM213.628 458.396L214.214 458.721L214.214 458.721L213.628 458.396ZM207.962 464.564L208.312 465.136L208.315 465.134L207.962 464.564ZM195.534 465.684L195.221 466.276L195.229 466.28L195.534 465.684ZM192.542 463.262L192.005 463.663L192.012 463.672L192.542 463.262ZM190.92 460.498L191.539 460.242L191.368 459.828H190.92V460.498ZM190.554 460.498V459.828H189.937L189.886 460.443L190.554 460.498ZM189.001 479.208V479.878H189.618L189.669 479.263L189.001 479.208ZM191.4 448.504L190.732 448.45L190.732 448.45L191.4 448.504ZM194.278 458.259L193.852 458.776L193.852 458.776L194.278 458.259ZM203.073 458.214L202.671 457.677L202.668 457.68L203.073 458.214ZM206.134 454.261L205.524 453.984L205.524 453.984L206.134 454.261ZM207.551 448.504L208.219 448.561L208.219 448.557L207.551 448.504ZM207.094 442.816L207.739 442.633L207.739 442.633L207.094 442.816ZM204.695 438.932L204.261 439.443L204.269 439.45L204.695 438.932ZM195.831 438.887L196.22 439.433L196.221 439.432L195.831 438.887ZM192.793 442.702L192.185 442.42L192.183 442.425L192.793 442.702ZM181.033 479.264L185.077 431.016L183.741 430.904L179.698 479.152L181.033 479.264ZM184.409 431.63H192.884V430.289H184.409V431.63ZM192.217 430.905L191.737 436.73L193.073 436.84L193.552 431.015L192.217 430.905ZM192.405 437.455H192.884V436.115H192.405V437.455ZM193.469 437.113C193.926 436.298 194.573 435.416 195.418 434.466L194.417 433.575C193.526 434.575 192.817 435.536 192.3 436.457L193.469 437.113ZM195.418 434.466C196.219 433.567 197.273 432.785 198.596 432.131L198.002 430.93C196.553 431.647 195.352 432.525 194.417 433.575L195.418 434.466ZM198.596 432.131C199.865 431.504 201.469 431.173 203.439 431.173V429.833C201.327 429.833 199.505 430.187 198.002 430.93L198.596 432.131ZM203.439 431.173C205.983 431.173 208.212 431.825 210.149 433.116L210.892 432.001C208.718 430.551 206.225 429.833 203.439 429.833V431.173ZM210.151 433.118C212.09 434.401 213.58 436.309 214.604 438.883L215.849 438.388C214.741 435.601 213.093 433.458 210.891 432L210.151 433.118ZM214.604 438.883C215.621 441.439 215.993 444.634 215.678 448.496L217.014 448.604C217.339 444.608 216.965 441.193 215.849 438.388L214.604 438.883ZM215.678 448.495C215.364 452.293 214.478 455.478 213.041 458.072L214.214 458.721C215.763 455.924 216.688 452.545 217.014 448.605L215.678 448.495ZM213.041 458.072C211.596 460.682 209.783 462.647 207.609 463.995L208.315 465.134C210.711 463.649 212.674 461.502 214.214 458.721L213.041 458.072ZM207.612 463.993C205.435 465.328 203.044 465.996 200.423 465.996V467.336C203.285 467.336 205.92 466.603 208.312 465.136L207.612 463.993ZM200.423 465.996C198.512 465.996 196.996 465.679 195.84 465.087L195.229 466.28C196.632 466.998 198.375 467.336 200.423 467.336V465.996ZM195.848 465.092C194.652 464.458 193.734 463.708 193.072 462.852L192.012 463.672C192.812 464.705 193.889 465.57 195.221 466.276L195.848 465.092ZM193.079 462.862C192.388 461.936 191.879 461.063 191.539 460.242L190.301 460.754C190.692 461.7 191.264 462.67 192.005 463.663L193.079 462.862ZM190.92 459.828H190.554V461.168H190.92V459.828ZM189.886 460.443L188.333 479.153L189.669 479.263L191.222 460.553L189.886 460.443ZM189.001 478.538H180.365V479.878H189.001V478.538ZM190.732 448.45C190.544 450.733 190.697 452.768 191.213 454.54L192.5 454.166C192.041 452.587 191.89 450.723 192.067 448.559L190.732 448.45ZM191.213 454.54C191.73 456.319 192.602 457.746 193.852 458.776L194.704 457.742C193.7 456.914 192.957 455.737 192.5 454.166L191.213 454.54ZM193.852 458.776C195.118 459.82 196.693 460.323 198.527 460.323V458.983C196.95 458.983 195.692 458.556 194.704 457.742L193.852 458.776ZM198.527 460.323C200.423 460.323 202.085 459.805 203.478 458.747L202.668 457.68C201.534 458.541 200.165 458.983 198.527 458.983V460.323ZM203.475 458.75C204.857 457.713 205.944 456.301 206.745 454.539L205.524 453.984C204.802 455.573 203.848 456.795 202.671 457.677L203.475 458.75ZM206.745 454.539C207.543 452.782 208.031 450.787 208.219 448.561L206.883 448.448C206.706 450.548 206.249 452.39 205.524 453.984L206.745 454.539ZM208.219 448.557C208.391 446.364 208.237 444.385 207.739 442.633L206.449 442.999C206.895 444.567 207.046 446.381 206.883 448.452L208.219 448.557ZM207.739 442.633C207.236 440.866 206.371 439.446 205.121 438.415L204.269 439.45C205.273 440.277 206.008 441.446 206.449 442.999L207.739 442.633ZM205.129 438.422C203.871 437.353 202.259 436.846 200.355 436.846V438.186C202.014 438.186 203.296 438.623 204.261 439.443L205.129 438.422ZM200.355 436.846C198.494 436.846 196.847 437.338 195.442 438.341L196.221 439.432C197.375 438.608 198.743 438.186 200.355 438.186V436.846ZM195.443 438.341C194.069 439.317 192.987 440.688 192.185 442.42L193.401 442.983C194.122 441.426 195.066 440.253 196.22 439.433L195.443 438.341ZM192.183 442.425C191.398 444.154 190.919 446.167 190.732 448.45L192.067 448.559C192.245 446.395 192.695 444.539 193.403 442.979L192.183 442.425ZM242.492 430.96L243.16 431.015L243.22 430.289H242.492V430.96ZM241.944 437.585V438.255H242.561L242.612 437.64L241.944 437.585ZM221.543 437.585L220.876 437.529L220.815 438.255H221.543V437.585ZM222.092 430.96V430.289H221.475L221.424 430.904L222.092 430.96ZM227.711 422.553V421.883H227.095L227.044 422.497L227.711 422.553ZM236.347 422.553L237.015 422.608L237.075 421.883H236.347V422.553ZM233.605 455.449L234.273 455.507L234.273 455.505L233.605 455.449ZM233.88 457.871L233.277 458.164L233.28 458.171L233.283 458.177L233.88 457.871ZM235.113 459.036L235.362 458.414L235.362 458.414L235.113 459.036ZM238.334 459.242L238.448 459.902L238.459 459.9L238.47 459.898L238.334 459.242ZM239.362 459.036L240.026 458.945L239.93 458.248L239.239 458.377L239.362 459.036ZM240.276 465.684L240.476 466.323L241.017 466.154L240.94 465.593L240.276 465.684ZM238.266 466.186L238.125 465.531L238.112 465.534L238.266 466.186ZM235.205 466.529L235.188 465.859L235.186 465.859L235.205 466.529ZM229.539 465.57L229.272 466.184L229.274 466.185L229.539 465.57ZM225.838 462.326L225.255 462.656L225.259 462.663L225.838 462.326ZM224.879 456.774L225.546 456.834L225.547 456.83L224.879 456.774ZM241.824 430.904L241.276 437.529L242.612 437.64L243.16 431.015L241.824 430.904ZM241.944 436.914H221.543V438.255H241.944V436.914ZM222.211 437.64L222.759 431.015L221.424 430.904L220.876 437.529L222.211 437.64ZM222.092 431.63H242.492V430.289H222.092V431.63ZM227.711 423.223H236.347V421.883H227.711V423.223ZM235.679 422.497L232.938 455.394L234.273 455.505L237.015 422.608L235.679 422.497ZM232.938 455.391C232.842 456.49 232.925 457.44 233.277 458.164L234.482 457.578C234.286 457.174 234.186 456.511 234.273 455.507L232.938 455.391ZM233.283 458.177C233.638 458.868 234.165 459.379 234.864 459.658L235.362 458.414C234.995 458.267 234.699 458 234.476 457.565L233.283 458.177ZM234.864 459.658C235.49 459.908 236.186 460.026 236.941 460.026V458.686C236.325 458.686 235.802 458.59 235.362 458.414L234.864 459.658ZM236.941 460.026C237.463 460.026 237.966 459.985 238.448 459.902L238.22 458.581C237.82 458.65 237.393 458.686 236.941 458.686V460.026ZM238.47 459.898C238.91 459.807 239.248 459.739 239.486 459.695L239.239 458.377C238.989 458.424 238.642 458.494 238.199 458.585L238.47 459.898ZM238.698 459.127L239.612 465.775L240.94 465.593L240.026 458.945L238.698 459.127ZM240.076 465.044C239.617 465.188 238.97 465.35 238.125 465.531L238.406 466.842C239.267 466.657 239.96 466.485 240.476 466.323L240.076 465.044ZM238.112 465.534C237.333 465.718 236.361 465.829 235.188 465.859L235.222 467.199C236.454 467.168 237.524 467.05 238.42 466.839L238.112 465.534ZM235.186 465.859C233.115 465.918 231.327 465.609 229.804 464.954L229.274 466.185C231.01 466.932 232.999 467.262 235.224 467.199L235.186 465.859ZM229.806 464.955C228.317 464.309 227.195 463.322 226.417 461.988L225.259 462.663C226.187 464.254 227.533 465.429 229.272 466.184L229.806 464.955ZM226.421 461.995C225.669 460.668 225.357 458.964 225.546 456.834L224.211 456.715C224.005 459.032 224.332 461.028 225.255 462.656L226.421 461.995ZM225.547 456.83L228.379 422.608L227.044 422.497L224.211 456.719L225.547 456.83ZM269.957 451.246L269.29 451.19L269.289 451.193L269.957 451.246ZM271.648 430.96V430.289H271.031L270.98 430.904L271.648 430.96ZM280.283 430.96L280.951 431.015L281.012 430.289H280.283V430.96ZM277.359 466.049V466.719H277.976L278.027 466.105L277.359 466.049ZM269.021 466.049L268.353 465.993L268.292 466.719H269.021V466.049ZM269.546 459.79L270.214 459.846L270.275 459.12H269.546V459.79ZM269.181 459.79V459.12H268.758L268.576 459.501L269.181 459.79ZM264.863 464.633L264.499 464.07L264.497 464.071L264.863 464.633ZM252.047 464.953L252.399 464.383L252.399 464.383L252.047 464.953ZM248.278 460.452L247.659 460.709L247.661 460.715L248.278 460.452ZM247.387 453.302L246.719 453.246L246.719 453.247L247.387 453.302ZM249.26 430.96V430.289H248.644L248.592 430.904L249.26 430.96ZM257.895 430.96L258.563 431.016L258.624 430.289H257.895V430.96ZM256.136 451.908L255.468 451.852L255.468 451.857L256.136 451.908ZM257.507 457.117L256.995 457.55L257.507 457.117ZM265.594 458.168L265.894 458.767L265.894 458.767L265.594 458.168ZM268.541 455.586L269.088 455.973L269.091 455.97L268.541 455.586ZM270.625 451.301L272.316 431.015L270.98 430.904L269.29 451.19L270.625 451.301ZM271.648 431.63H280.283V430.289H271.648V431.63ZM279.615 430.904L276.691 465.994L278.027 466.105L280.951 431.015L279.615 430.904ZM277.359 465.379H269.021V466.719H277.359V465.379ZM269.689 466.105L270.214 459.846L268.878 459.734L268.353 465.993L269.689 466.105ZM269.546 459.12H269.181V460.46H269.546V459.12ZM268.576 459.501C267.688 461.363 266.335 462.885 264.499 464.07L265.226 465.196C267.26 463.883 268.785 462.176 269.786 460.078L268.576 459.501ZM264.497 464.071C262.703 465.239 260.557 465.836 258.032 465.836V467.176C260.777 467.176 263.185 466.524 265.228 465.195L264.497 464.071ZM258.032 465.836C255.82 465.836 253.951 465.342 252.399 464.383L251.695 465.523C253.493 466.635 255.615 467.176 258.032 467.176V465.836ZM252.399 464.383C250.852 463.426 249.682 462.038 248.894 460.19L247.661 460.715C248.548 462.796 249.892 464.408 251.695 465.523L252.399 464.383ZM248.896 460.195C248.125 458.339 247.832 456.069 248.055 453.357L246.719 453.247C246.484 456.109 246.785 458.606 247.659 460.709L248.896 460.195ZM248.054 453.358L249.928 431.016L248.592 430.904L246.719 453.246L248.054 453.358ZM249.26 431.63H257.895V430.289H249.26V431.63ZM257.228 430.903L255.468 451.852L256.804 451.964L258.563 431.016L257.228 430.903ZM255.468 451.857C255.291 454.169 255.768 456.098 256.995 457.55L258.019 456.684C257.083 455.578 256.646 454.034 256.804 451.959L255.468 451.857ZM256.995 457.55C258.225 459.005 259.942 459.706 262.053 459.706V458.366C260.265 458.366 258.951 457.788 258.019 456.684L256.995 457.55ZM262.053 459.706C263.368 459.706 264.65 459.389 265.894 458.767L265.294 457.568C264.223 458.104 263.144 458.366 262.053 458.366V459.706ZM265.894 458.767C267.158 458.135 268.223 457.198 269.088 455.973L267.994 455.2C267.245 456.259 266.345 457.043 265.294 457.568L265.894 458.767ZM269.091 455.97C269.98 454.694 270.481 453.126 270.625 451.299L269.289 451.193C269.159 452.838 268.716 454.164 267.991 455.203L269.091 455.97ZM296.012 445.557L296.68 445.613L296.68 445.613L296.012 445.557ZM294.299 466.049V466.719H294.915L294.966 466.105L294.299 466.049ZM285.686 466.049L285.018 465.994L284.958 466.719H285.686V466.049ZM288.61 430.96V430.289H287.994L287.942 430.904L288.61 430.96ZM296.834 430.96L297.502 431.013L297.56 430.289H296.834V430.96ZM296.355 436.968L295.687 436.914L295.629 437.638H296.355V436.968ZM296.766 436.968V437.638H297.189L297.371 437.256L296.766 436.968ZM301.015 432.262L301.365 432.833L301.369 432.831L301.015 432.262ZM313.991 432.079L313.642 432.651L313.645 432.653L313.991 432.079ZM318.743 443.707L319.41 443.763L319.411 443.762L318.743 443.707ZM316.869 466.049V466.719H317.486L317.537 466.105L316.869 466.049ZM308.234 466.049L307.566 465.994L307.506 466.719H308.234V466.049ZM309.97 445.101L309.303 445.043L309.302 445.045L309.97 445.101ZM308.645 439.709L308.128 440.135L308.131 440.139L308.645 439.709ZM300.056 438.681L299.74 438.09L299.737 438.092L300.056 438.681ZM297.291 441.354L297.861 441.706L297.863 441.703L297.291 441.354ZM295.344 445.502L293.631 465.993L294.966 466.105L296.68 445.613L295.344 445.502ZM294.299 465.379H285.686V466.719H294.299V465.379ZM286.354 466.105L289.278 431.015L287.942 430.904L285.018 465.994L286.354 466.105ZM288.61 431.63H296.834V430.289H288.61V431.63ZM296.166 430.906L295.687 436.914L297.023 437.021L297.502 431.013L296.166 430.906ZM296.355 437.638H296.766V436.298H296.355V437.638ZM297.371 437.256C298.259 435.394 299.586 433.924 301.365 432.833L300.665 431.69C298.667 432.915 297.162 434.581 296.161 436.679L297.371 437.256ZM301.369 432.831C303.133 431.735 305.26 431.173 307.777 431.173V429.833C305.055 429.833 302.674 430.443 300.661 431.692L301.369 432.831ZM307.777 431.173C310.1 431.173 312.045 431.676 313.642 432.651L314.34 431.507C312.495 430.38 310.297 429.833 307.777 429.833V431.173ZM313.645 432.653C315.238 433.611 316.426 434.999 317.212 436.842L318.445 436.317C317.556 434.231 316.186 432.618 314.336 431.505L313.645 432.653ZM317.212 436.842C317.996 438.681 318.297 440.941 318.075 443.652L319.411 443.762C319.645 440.899 319.337 438.408 318.445 436.317L317.212 436.842ZM318.075 443.651L316.202 465.993L317.537 466.105L319.41 443.763L318.075 443.651ZM316.869 465.379H308.234V466.719H316.869V465.379ZM308.902 466.105L310.638 445.156L309.302 445.045L307.566 465.994L308.902 466.105ZM310.638 445.158C310.845 442.748 310.391 440.754 309.16 439.28L308.131 440.139C309.062 441.254 309.491 442.853 309.303 445.043L310.638 445.158ZM309.162 439.283C307.938 437.796 306.14 437.097 303.893 437.097V438.437C305.85 438.437 307.221 439.033 308.128 440.135L309.162 439.283ZM303.893 437.097C302.378 437.097 300.988 437.424 299.74 438.09L300.371 439.272C301.407 438.72 302.576 438.437 303.893 438.437V437.097ZM299.737 438.092C298.498 438.761 297.492 439.739 296.719 441.005L297.863 441.703C298.522 440.624 299.359 439.819 300.374 439.271L299.737 438.092ZM296.721 441.002C295.939 442.266 295.488 443.774 295.344 445.502L296.68 445.613C296.81 444.051 297.212 442.757 297.861 441.706L296.721 441.002ZM331.701 464.542L331.354 465.115L331.357 465.116L331.701 464.542ZM326.31 458.282L325.694 458.545L325.694 458.546L326.31 458.282ZM325.031 448.687L324.363 448.631L324.363 448.632L325.031 448.687ZM327.886 439.207L327.309 438.867L327.308 438.868L327.886 439.207ZM334.237 432.81L334.574 433.389L334.575 433.389L334.237 432.81ZM349.383 431.576L349.146 432.203L349.15 432.205L349.383 431.576ZM354.249 434.798L353.76 435.256L353.763 435.258L354.249 434.798ZM357.288 440.326L356.644 440.514L356.646 440.519L357.288 440.326ZM357.904 448.253L357.237 448.197L357.236 448.2L357.904 448.253ZM357.699 450.835V451.505H358.318L358.367 450.888L357.699 450.835ZM328.732 450.835L328.064 450.781L328.005 451.505H328.732V450.835ZM329.188 445.146V444.476H328.57L328.521 445.093L329.188 445.146ZM349.932 445.146V445.816H350.551L350.6 445.199L349.932 445.146ZM349.292 441.034L348.682 441.312L348.684 441.315L349.292 441.034ZM346.802 438.201L346.441 438.766L346.45 438.772L346.802 438.201ZM338.463 438.338L338.805 438.915L338.81 438.912L338.463 438.338ZM335.265 441.423L334.702 441.06L334.7 441.062L335.265 441.423ZM333.872 445.535L334.539 445.598L334.54 445.59L333.872 445.535ZM333.369 450.812L332.702 450.748L332.701 450.757L333.369 450.812ZM334.009 455.952L333.393 456.216L333.396 456.224L334.009 455.952ZM336.773 459.059L336.442 459.642L336.451 459.646L336.773 459.059ZM344.586 459.607L344.792 460.245L344.801 460.242L344.586 459.607ZM347.19 458.122L347.632 458.626L347.19 458.122ZM348.972 455.678L349.039 455.011L348.56 454.963L348.362 455.401L348.972 455.678ZM356.922 456.477L357.561 456.679L357.81 455.893L356.989 455.811L356.922 456.477ZM353.678 461.892L353.2 461.422L353.197 461.425L353.678 461.892ZM348.127 465.478L348.365 466.105L348.368 466.103L348.127 465.478ZM340.657 466.065C337.215 466.065 334.356 465.353 332.046 463.967L331.357 465.116C333.92 466.654 337.031 467.405 340.657 467.405V466.065ZM332.049 463.969C329.735 462.566 328.03 460.589 326.926 458.018L325.694 458.546C326.905 461.366 328.794 463.563 331.354 465.115L332.049 463.969ZM326.926 458.019C325.821 455.431 325.401 452.346 325.699 448.742L324.363 448.632C324.052 452.399 324.484 455.712 325.694 458.545L326.926 458.019ZM325.698 448.744C325.996 445.235 326.922 442.174 328.464 439.546L327.308 438.868C325.652 441.691 324.675 444.951 324.363 448.631L325.698 448.744ZM328.464 439.547C330.023 436.899 332.059 434.852 334.574 433.389L333.9 432.231C331.176 433.814 328.979 436.031 327.309 438.867L328.464 439.547ZM334.575 433.389C337.096 431.917 339.985 431.173 343.261 431.173V429.833C339.774 429.833 336.647 430.627 333.899 432.231L334.575 433.389ZM343.261 431.173C345.38 431.173 347.339 431.518 349.146 432.203L349.621 430.95C347.65 430.203 345.528 429.833 343.261 429.833V431.173ZM349.15 432.205C350.943 432.87 352.477 433.886 353.76 435.256L354.738 434.339C353.311 432.815 351.601 431.684 349.616 430.948L349.15 432.205ZM353.763 435.258C355.049 436.616 356.014 438.36 356.645 440.514L357.931 440.138C357.251 437.814 356.191 435.873 354.736 434.337L353.763 435.258ZM356.646 440.519C357.285 442.641 357.491 445.194 357.237 448.197L358.572 448.31C358.836 445.19 358.63 442.459 357.929 440.133L356.646 440.519ZM357.236 448.2L357.031 450.781L358.367 450.888L358.572 448.306L357.236 448.2ZM357.699 450.165H328.732V451.505H357.699V450.165ZM329.4 450.888L329.856 445.2L328.521 445.093L328.064 450.781L329.4 450.888ZM329.188 445.816H349.932V444.476H329.188V445.816ZM350.6 445.199C350.729 443.553 350.505 442.064 349.9 440.753L348.684 441.315C349.175 442.381 349.378 443.633 349.264 445.094L350.6 445.199ZM349.902 440.756C349.299 439.434 348.38 438.387 347.154 437.631L346.45 438.772C347.447 439.387 348.188 440.228 348.682 441.312L349.902 440.756ZM347.163 437.637C345.94 436.856 344.492 436.48 342.85 436.48V437.821C344.284 437.821 345.471 438.146 346.441 438.766L347.163 437.637ZM342.85 436.48C341.12 436.48 339.537 436.906 338.117 437.765L338.81 438.912C340.01 438.187 341.351 437.821 342.85 437.821V436.48ZM338.122 437.762C336.722 438.592 335.58 439.693 334.702 441.06L335.829 441.785C336.595 440.593 337.585 439.639 338.805 438.915L338.122 437.762ZM334.7 441.062C333.835 442.417 333.335 443.892 333.204 445.48L334.54 445.59C334.652 444.222 335.081 442.956 335.83 441.783L334.7 441.062ZM333.205 445.471L332.702 450.748L334.036 450.875L334.539 445.598L333.205 445.471ZM332.701 450.757C332.528 452.869 332.743 454.7 333.393 456.216L334.625 455.688C334.086 454.432 333.875 452.836 334.037 450.867L332.701 450.757ZM333.396 456.224C334.06 457.718 335.076 458.866 336.442 459.641L337.104 458.476C336.002 457.85 335.176 456.927 334.621 455.68L333.396 456.224ZM336.451 459.646C337.821 460.398 339.461 460.757 341.342 460.757V459.417C339.629 459.417 338.223 459.09 337.095 458.471L336.451 459.646ZM341.342 460.757C342.576 460.757 343.728 460.589 344.792 460.245L344.38 458.969C343.464 459.265 342.453 459.417 341.342 459.417V460.757ZM344.801 460.242C345.87 459.88 346.816 459.342 347.632 458.626L346.748 457.618C346.072 458.212 345.282 458.664 344.371 458.972L344.801 460.242ZM347.632 458.626C348.456 457.903 349.105 457.009 349.583 455.954L348.362 455.401C347.956 456.296 347.417 457.031 346.748 457.618L347.632 458.626ZM348.905 456.344L356.855 457.144L356.989 455.811L349.039 455.011L348.905 456.344ZM356.283 456.275C355.66 458.247 354.633 459.96 353.2 461.422L354.157 462.361C355.739 460.747 356.875 458.85 357.561 456.679L356.283 456.275ZM353.197 461.425C351.779 462.887 350.013 464.031 347.885 464.853L348.368 466.103C350.657 465.219 352.592 463.973 354.159 462.358L353.197 461.425ZM347.889 464.852C345.769 465.656 343.361 466.065 340.657 466.065V467.405C343.496 467.405 346.068 466.976 348.365 466.105L347.889 464.852Z" fill="black" mask="url(#path-4-outside-1_0_1)"/>
</svg>
